<?xml version="1.0" encoding="utf-8"?>
<svg version="1.1" id="Layer_1"
xmlns="http://www.w3.org/2000/svg"
xmlns:xlink="http://www.w3.org/1999/xlink"
width="324px" height="53px"
xml:space="preserve">
<g id="PathID_288" transform="matrix(0.665574, 0, 0, 0.665574, 197.95, 29.9)" opacity="1">
<path style="fill:#FFFFFF;fill-opacity:1" d="M2.05 0L2.05 -7.3Q2.05 -7.4 2.15 -7.45Q2.85 -7.4 3.1 -7Q3.3 -6.65 3.4 -6.15Q3.5 -5.7 3.75 -5.25Q3.95 -4.85 4.6 -4.75L14.25 -4.75Q17.2 -4.75 18.7 -5.9Q20.2 -7.05 20.2 -9.3Q20.2 -11.05 19.05 -12.3Q17.9 -13.6 14.7 -15.2L8.7 -18.25Q5.45 -19.95 3.8 -22.15Q2.2 -24.35 2.2 -27.1Q2.2 -31.1 5.15 -33.45Q6.6 -34.65 8.6 -35.25Q10.55 -35.85 13.1 -35.85L23.5 -35.85L23.5 -35.45Q23.45 -35.1 23.2 -34.55Q22.95 -34.05 22.45 -33.45Q21.95 -32.9 21.05 -32.35Q20.1 -31.85 18.65 -31.5Q17.2 -31.1 15.1 -31.05L11.6 -31.05Q9.55 -31.05 8.3 -30Q7.1 -29 7.1 -27.3Q7.1 -25.75 8.15 -24.6Q8.7 -24 10 -23.2Q11.25 -22.45 13.25 -21.4L18.45 -18.75Q21.9 -17 23.55 -14.75Q25.15 -12.5 25.15 -9.55Q25.15 -5 22.05 -2.5Q18.95 0 13.35 0L5.6 0L2.05 0" />
</g>
<g id="PathID_289" transform="matrix(0.665574, 0, 0, 0.665574, 215.85, 29.9)" opacity="1">
<path style="fill:#FFFFFF;fill-opacity:1" d="M1.6 -12.2Q1.6 -14.7 2.55 -17.05Q3.5 -19.3 5.3 -21.15Q7.05 -22.95 9.25 -23.9Q11.45 -24.8 13.95 -24.8Q16.5 -24.8 18.65 -23.9Q20.95 -22.95 22.65 -21.15Q24.4 -19.35 25.35 -17.05Q26.25 -14.8 26.25 -12.2Q26.25 -9.6 25.35 -7.3Q24.4 -4.95 22.65 -3.2Q20.95 -1.45 18.65 -0.5Q16.4 0.45 13.95 0.45Q11.5 0.45 9.25 -0.5Q7.05 -1.4 5.3 -3.2Q3.5 -5.05 2.55 -7.35Q1.6 -9.65 1.6 -12.2M6.15 -12.25Q6.15 -8.75 8.45 -6.25Q10.75 -3.75 13.95 -3.75Q17.15 -3.75 19.45 -6.25Q21.75 -8.7 21.75 -12.25Q21.75 -15.75 19.45 -18.25Q17.15 -20.7 13.95 -20.7Q10.75 -20.7 8.45 -18.25Q6.15 -15.75 6.15 -12.25" />
</g>
<g id="PathID_290" transform="matrix(0.665574, 0, 0, 0.665574, 234.4, 29.9)" opacity="1">
<path style="fill:#FFFFFF;fill-opacity:1" d="M7.3 -4.6Q7.35 -3.5 7.6 -2.9Q7.85 -2.3 8.15 -1.95Q8.5 -1.65 8.85 -1.55L9.55 -1.25Q9.85 -1.15 10.05 -0.85Q10.2 -0.6 10.2 0L0.1 0Q0.05 -0.6 0.25 -0.85Q0.45 -1.15 0.75 -1.25L1.4 -1.55Q1.8 -1.65 2.1 -2Q2.45 -2.3 2.7 -2.95Q2.9 -3.55 2.95 -4.7L2.95 -26.5Q2.95 -31 5.55 -33.3Q8.05 -35.55 13.25 -35.55L15.4 -35.55L16.05 -35.55L16.6 -35.55L16.95 -35.55Q18.25 -35.55 19.1 -34.9Q19.9 -34.25 20.3 -33.45Q20.8 -32.55 21 -31.4L15.9 -31.4L13.35 -31.4Q10.2 -31.4 8.75 -30Q7.3 -28.65 7.3 -25.7L7.3 -4.6M15.9 -24.35Q17.2 -24.3 18.05 -23.65Q18.85 -23.05 19.3 -22.25Q19.8 -21.35 20 -20.25L8.75 -20.25L8.75 -24.35L15.9 -24.35" />
</g>
<g id="PathID_291" transform="matrix(0.665574, 0, 0, 0.665574, 247.5, 29.9)" opacity="1">
<path style="fill:#FFFFFF;fill-opacity:1" d="M8.3 -24.5L8.8 -24.5L9.75 -24.45L10.9 -24.45Q12.25 -24.45 13.05 -23.8Q13.85 -23.15 14.25 -22.35Q14.75 -21.45 14.95 -20.3L9.3 -20.3L8.25 -20.3L8.3 -24.5M14.4 -5.9L14.45 -5.85L14.45 -0.05L14.45 0L13 0L12.5 0L11.95 -0.05L11.9 -0.05Q7.55 -0.25 5.3 -2.25Q2.7 -4.5 2.7 -9.05L2.7 -26.05L2.7 -26.15L2.7 -27.1Q2.75 -28.5 3.4 -29.35Q4.1 -30.2 4.9 -30.65Q5.85 -31.15 7.1 -31.35L7.1 -25.4L7.1 -24.35L7.1 -9.85Q7.1 -6.9 8.5 -5.55Q9.85 -4.25 12.75 -4.2Q13.15 -4.3 13.3 -4.55L13.5 -5.1Q13.55 -5.4 13.75 -5.65Q13.9 -5.9 14.4 -5.9" />
</g>
<g id="PathID_292" transform="matrix(0.665574, 0, 0, 0.665574, 267.45, 29.9)" opacity="1">
<path style="fill:#FFFFFF;fill-opacity:1" d="M8.15 -4.45Q8.25 -3.45 8.55 -2.9Q8.85 -2.35 9.2 -2.1Q9.6 -1.8 10 -1.7L10.7 -1.4Q11 -1.25 11.2 -0.95Q11.4 -0.65 11.35 0L-0.05 0Q-0.1 -0.7 0.1 -1Q0.3 -1.3 0.7 -1.45L1.45 -1.75Q1.9 -1.9 2.3 -2.25Q2.65 -2.65 2.95 -3.35Q3.2 -4.1 3.2 -5.4L3.25 -5.4L3.25 -31.15L3.2 -31.15Q3.15 -32.25 2.85 -32.9Q2.6 -33.5 2.25 -33.8Q1.85 -34.15 1.45 -34.25L0.7 -34.55Q0.35 -34.7 0.15 -35Q-0.05 -35.25 0 -35.85L0 -35.95L0.15 -36L11.25 -36L11.4 -35.95L11.4 -35.85Q11.4 -35.25 11.2 -35Q11 -34.7 10.65 -34.55L9.95 -34.3Q9.55 -34.15 9.2 -33.85Q8.8 -33.55 8.55 -32.95Q8.25 -32.4 8.15 -31.35L8.15 -4.45M28.3 -4.85Q28.35 -3.75 28.65 -3.1Q28.9 -2.5 29.3 -2.15Q29.65 -1.85 30.05 -1.7L30.8 -1.45Q31.15 -1.3 31.35 -1Q31.55 -0.7 31.55 -0.1L31.55 -0.05L31.35 0L26.05 0L20.25 0L20.15 -0.05L20.1 -0.15Q20.1 -0.75 20.3 -1Q20.5 -1.3 20.85 -1.45L21.55 -1.7Q21.95 -1.85 22.35 -2.15Q22.7 -2.45 23 -3Q23.25 -3.6 23.35 -4.65L23.35 -16.85L9.95 -16.85Q9.4 -16.85 9.35 -17.15Q9.3 -17.45 9.65 -17.95Q10 -18.4 10.7 -18.95Q11.35 -19.5 12.25 -20Q13.1 -20.5 14.2 -20.8Q15.25 -21.1 16.35 -21.1L18.3 -21.1L19.5 -21.1L20.25 -21.1L20.85 -21.15L21.5 -21.15L22.5 -21.2Q23 -21.25 23.2 -21.5L23.4 -21.95L23.35 -31.5Q23.25 -32.5 22.95 -33.05Q22.65 -33.6 22.3 -33.85Q21.9 -34.15 21.5 -34.25L20.8 -34.55Q20.5 -34.7 20.3 -35Q20.1 -35.3 20.15 -35.95L31.6 -35.9Q31.65 -35.25 31.4 -34.95Q31.2 -34.65 30.85 -34.5L30.05 -34.2Q29.6 -34.05 29.25 -33.7Q28.85 -33.35 28.6 -32.6Q28.3 -31.9 28.3 -30.55L28.3 -4.85" />
</g>
<g id="PathID_293" transform="matrix(0.665574, 0, 0, 0.665574, 288.35, 29.9)" opacity="1">
<path style="fill:#FFFFFF;fill-opacity:1" d="M23.4 -11.05Q23.4 -7.3 21.95 -4.65L21.95 -4.6Q21.4 -3.55 20.6 -2.65Q17.75 0.45 13.05 0.45Q8.35 0.45 5.5 -2.65L5.45 -2.65L4.7 -3.55Q4.35 -4.05 4.1 -4.6Q2.65 -7.25 2.65 -11.05L2.65 -24.4Q3.85 -24.45 4.85 -23.85Q5.25 -23.6 5.65 -23.15Q6 -22.75 6.35 -22.1Q6.65 -21.45 6.8 -20.6Q7 -19.7 7 -18.5L7 -10.25Q7 -7.35 8.7 -5.6Q10.4 -3.75 13.05 -3.75Q15.7 -3.75 17.35 -5.6Q17.65 -5.85 17.85 -6.15L18.2 -6.75Q19.05 -8.3 19.05 -10.25L19.1 -10.25L19.1 -18.5Q19.1 -19.7 19.25 -20.6Q19.45 -21.45 19.75 -22.1Q20.05 -22.75 20.45 -23.15Q20.8 -23.6 21.25 -23.85Q22.2 -24.45 23.4 -24.4L23.4 -11.05" />
</g>
<g id="PathID_294" transform="matrix(0.665574, 0, 0, 0.665574, 305.8, 29.9)" opacity="1">
<path style="fill:#FFFFFF;fill-opacity:1" d="M9.2 -4.95Q9.25 -3.7 9.5 -3.05Q9.7 -2.4 10.05 -2.05Q10.4 -1.7 10.8 -1.55L11.5 -1.3Q11.85 -1.15 12.05 -0.85Q12.25 -0.6 12.2 0L1.9 0Q1.85 -0.6 2.05 -0.85Q2.25 -1.15 2.55 -1.25L3.3 -1.55Q3.7 -1.7 4 -2Q4.35 -2.35 4.6 -3Q4.85 -3.7 4.85 -4.9L4.85 -24.35Q6.15 -24.3 7.15 -23.45Q7.55 -23.1 7.95 -22.5Q8.35 -21.95 8.65 -21.05Q8.95 -20.2 9.1 -19Q9.25 -17.8 9.2 -16.2L9.2 -4.95M9.15 -26.7Q8.1 -26.85 7.25 -27.3Q6.5 -27.65 5.8 -28.25Q5.15 -28.9 4.9 -29.95L4.9 -34.05Q5.95 -34.05 6.8 -33.75Q7.15 -33.65 7.5 -33.4L8.2 -32.8Q8.5 -32.45 8.75 -31.95Q9 -31.45 9.15 -30.8L9.15 -30.55L9.15 -26.7" />
</g>
<g id="PathID_295" transform="matrix(0.575466, 0, 0, 0.575466, 57.9, 28)" opacity="1">
<path style="fill:#FFFFFF;fill-opacity:1" d="M6.05 -19L12.15 -19L12.15 -29.1L15.65 -29.1L15.65 -19L22.5 -19L22.5 -15.7L15.65 -15.7L15.65 -8.15L23.8 -9.1Q23.55 -7.2 23.45 -5.6L15.65 -4.7L15.65 6.6L12.15 6.6L12.15 -4.3L1.35 -2.9L0.9 -6.65L12.15 -7.8L12.15 -15.7L2.3 -15.7L2.3 -18.85Q5.05 -25.9 7 -31.6L1.7 -31.6L1.7 -34.9L8.05 -34.9Q9.45 -39.4 10.25 -42.9L14.25 -42.1L11.85 -34.9L22.3 -34.9L22.3 -31.6L10.75 -31.6Q8.45 -25.1 6.05 -19M32.6 -28.5L36.5 -28.5Q36.5 -23.3 36.3 -18.9Q40.2 -1.8 51.1 3.15L47.95 6.6Q38.85 1.55 34.9 -11.4Q32.25 -0.05 20.55 6.95Q19.4 5.3 18 3.65Q31.65 -3.85 32.45 -18.65Q32.6 -21.75 32.6 -28.5M20.1 -23Q25.5 -30.9 29.25 -42.9L33.2 -41.85Q31.8 -37.95 30.35 -34.45L50 -34.45L50 -31.1L44.8 -21.45L40.9 -22.3L45.4 -31L28.85 -31Q26.3 -25.4 23.5 -20.9L20.1 -23" />
</g>
<g id="PathID_296" transform="matrix(0.575466, 0, 0, 0.575466, 87.35, 28)" opacity="1">
<path style="fill:#FFFFFF;fill-opacity:1" d="M6.65 -8.6L40.25 -8.6L40.25 -11.85L8.25 -11.85L8.25 -14.55L40.25 -14.55L40.25 -17.8L6.65 -17.8L6.65 -20.5L43.95 -20.5L43.95 -4.65L40.25 -4.65L40.25 -5.9L6.65 -5.9L6.65 -8.6M2 -26.35L12.35 -26.35L12.35 -29.65L4.4 -29.65L4.4 -32.25L12.35 -32.25L12.35 -35.5L3.2 -35.5L3.2 -38.1L12.35 -38.1L12.35 -41.75L15.85 -41.75L15.85 -38.1L24.3 -38.1L24.3 -35.5L15.85 -35.5L15.85 -32.25L23.7 -32.25L23.7 -29.65L15.85 -29.65L15.85 -26.35L24.65 -26.35L24.65 -23.75L15.85 -23.75L15.85 -22.05L12.35 -22.05L12.35 -23.75L2 -23.75L2 -26.35M26.5 -26.35L34.45 -26.35L34.45 -29.65L28 -29.65L28 -32.25L34.45 -32.25L34.45 -35.5L26.9 -35.5L26.9 -38.1L34.45 -38.1L34.45 -41.65L37.95 -41.65L37.95 -38.1L47.9 -38.1L47.9 -35.5L37.95 -35.5L37.95 -32.25L46.7 -32.25L46.7 -29.65L37.95 -29.65L37.95 -26.35L48.65 -26.35L48.65 -23.75L37.95 -23.75L37.95 -22L34.45 -22L34.45 -23.75L26.5 -23.75L26.5 -26.35M13.95 -4.4L17.75 -4.4L17.75 1.05Q17.75 2.9 19.85 2.9L30.3 2.9Q33.6 2.9 34.6 1.8Q35.65 0.55 35.75 -2.95Q37.4 -2.25 39.65 -1.45Q38.95 3.2 37.25 4.6Q35.55 6.2 31.1 6.2L18.7 6.2Q13.95 6.2 13.95 1.35L13.95 -4.4M7.65 -4.35L11 -2.75Q8.35 1.85 5.25 5.55Q4.15 4.75 2.15 3.5Q5.55 -0.1 7.65 -4.35M41.85 -2L44.75 -4.05Q48 -0.3 50.55 3.3L47.4 5.5Q44.65 1.35 41.85 -2M22.65 -4.05L25.25 -5.85Q27.45 -3.75 29.55 -1.4L26.6 0.7Q24.75 -1.85 22.65 -4.05" />
</g>
<g id="PathID_297" transform="matrix(0.575466, 0, 0, 0.575466, 116.8, 28)" opacity="1">
<path style="fill:#FFFFFF;fill-opacity:1" d="M18.4 -11.45L46.85 -11.45L46.85 6.85L43 6.85L43 3.85L22.25 3.85L22.25 6.85L18.4 6.85L18.4 -11.45M0.65 -18.4Q8 -29.3 11.7 -42.5L15.6 -41.4Q13.4 -34.7 10.85 -29L10.85 6.85L7.15 6.85L7.15 -21.7Q4.85 -17.65 2.3 -14.3L0.65 -18.4M43 -8.05L22.25 -8.05L22.25 0.45L43 0.45L43 -8.05M15.1 -35.75L31.4 -35.75Q29.9 -38.35 28.3 -40.85L31.65 -42.6Q33.45 -39.9 35.2 -36.9L33 -35.75L50.3 -35.75L50.3 -32.25L15.1 -32.25L15.1 -35.75M17.85 -27.6L47.35 -27.6L47.35 -24.2L17.85 -24.2L17.85 -27.6M17.85 -19.55L47.35 -19.55L47.35 -16.15L17.85 -16.15L17.85 -19.55" />
</g>
<g id="PathID_298" transform="matrix(0.575466, 0, 0, 0.575466, 146.25, 28)" opacity="1">
<path style="fill:#FFFFFF;fill-opacity:1" d="M7.3 -37.65L19.5 -37.65Q20.6 -40.35 21.3 -42.8L25.2 -41.75L23.45 -37.65L43.4 -37.65L43.4 -10.35L39.55 -10.35L39.55 -11.9L11.15 -11.9L11.15 -10.35L7.3 -10.35L7.3 -37.65M12.55 -8.45L16.35 -8.45L16.35 -1.1Q16.35 2 19.65 2L30.75 2Q34.75 2 35.4 -0.75Q35.9 -2.55 36.4 -6.2Q38.25 -5.45 40.3 -4.75Q39.7 -1.3 39.1 0.8Q37.95 5.55 31.65 5.55L19.05 5.55Q12.55 5.55 12.55 -0.65L12.55 -8.45M11.15 -22.7L39.55 -22.7L39.55 -26.9L11.15 -26.9L11.15 -22.7M11.15 -15.3L39.55 -15.3L39.55 -19.5L11.15 -19.5L11.15 -15.3M39.55 -34.25L11.15 -34.25L11.15 -30.1L39.55 -30.1L39.55 -34.25M5.1 -8.95L8.75 -7.7Q6.55 -1.7 4.15 3.25Q2.55 2.55 0.45 1.8Q2.9 -2.55 5.1 -8.95M40.95 -7.35L43.85 -9.6Q47.4 -5.75 51.1 -1.15L47.9 1.3Q44.5 -3.3 40.95 -7.35M21.3 -9L24 -11.3Q27.05 -8.5 30.7 -4.6L27.65 -2Q23.95 -6.35 21.3 -9" />
</g>
<g id="PathID_299" transform="matrix(0.575466, 0, 0, 0.575466, 184.45, 28)" opacity="1">
<path style="fill:#FFFFFF;fill-opacity:1" d="M9.05 13.05L4.75 13.05L4.75 -42.25L9.05 -42.25L9.05 13.05" />
</g>
<g id="PathID_300" transform="matrix(0.242415, 0, 0, 0.242415, 84.25, 48.75)" opacity="1">
<path style="fill:#FFFFFF;fill-opacity:1" d="M55.3 -13.45L0 -13.45L0 -17.2L55.3 -17.2L55.3 -13.45" />
</g>
<g id="PathID_301" transform="matrix(0.242415, 0, 0, 0.242415, 97.65, 48.75)" opacity="1">
<path style="fill:#FFFFFF;fill-opacity:1" d="M55.3 -13.45L0 -13.45L0 -17.2L55.3 -17.2L55.3 -13.45" />
</g>
<g id="PathID_302" transform="matrix(0.242415, 0, 0, 0.242415, 122.05, 48.75)" opacity="1">
<path style="fill:#FFFFFF;fill-opacity:1" d="M9.05 -38.75L8.2 -26.7L4.85 -26.7L4.05 -38.75L9.05 -38.75" />
</g>
<g id="PathID_303" transform="matrix(0.242415, 0, 0, 0.242415, 125.25, 48.75)" opacity="1">
<path style="fill:#FFFFFF;fill-opacity:1" d="M9.05 -38.75L8.2 -26.7L4.85 -26.7L4.05 -38.75L9.05 -38.75" />
</g>
<g id="PathID_304" transform="matrix(0.242415, 0, 0, 0.242415, 128.4, 48.75)" opacity="1">
<path style="fill:#FFFFFF;fill-opacity:1" d="M6.05 -19L12.15 -19L12.15 -29.1L15.65 -29.1L15.65 -19L22.5 -19L22.5 -15.7L15.65 -15.7L15.65 -8.15L23.8 -9.1Q23.55 -7.2 23.45 -5.6L15.65 -4.7L15.65 6.6L12.15 6.6L12.15 -4.3L1.35 -2.9L0.9 -6.65L12.15 -7.8L12.15 -15.7L2.3 -15.7L2.3 -18.85Q5.05 -25.9 7 -31.6L1.7 -31.6L1.7 -34.9L8.05 -34.9Q9.45 -39.4 10.25 -42.9L14.25 -42.1L11.85 -34.9L22.3 -34.9L22.3 -31.6L10.75 -31.6Q8.45 -25.1 6.05 -19M32.6 -28.5L36.5 -28.5Q36.5 -23.3 36.3 -18.9Q40.2 -1.8 51.1 3.15L47.95 6.6Q38.85 1.55 34.9 -11.4Q32.25 -0.05 20.55 6.95Q19.4 5.3 18 3.65Q31.65 -3.85 32.45 -18.65Q32.6 -21.75 32.6 -28.5M20.1 -23Q25.5 -30.9 29.25 -42.9L33.2 -41.85Q31.8 -37.95 30.35 -34.45L50 -34.45L50 -31.1L44.8 -21.45L40.9 -22.3L45.4 -31L28.85 -31Q26.3 -25.4 23.5 -20.9L20.1 -23" />
</g>
<g id="PathID_305" transform="matrix(0.242415, 0, 0, 0.242415, 140.85, 48.75)" opacity="1">
<path style="fill:#FFFFFF;fill-opacity:1" d="M15.6 -14.5L32.95 -14.5L32.95 -27.15L23.4 -27.15Q21.4 -21.8 19 -17.55Q17.55 -18.95 15.7 -20.2Q20.45 -28.55 22.7 -38.85L26.75 -37.7Q25.75 -34 24.65 -30.65L32.95 -30.65L32.95 -42.25L36.95 -42.25L36.95 -30.65L48.9 -30.65L48.9 -27.15L36.95 -27.15L36.95 -14.5L50.55 -14.5L50.55 -11L36.95 -11L36.95 6.5L32.95 6.5L32.95 -11L15.6 -11L15.6 -14.5M0.55 -17.5Q7.45 -27.7 11.65 -42.2L15.75 -41Q13.9 -35.2 11.75 -30.1L11.75 6.55L7.8 6.55L7.8 -21.85Q5.25 -17.1 2.35 -13.15Q1.6 -15.3 0.55 -17.5" />
</g>
<g id="PathID_306" transform="matrix(0.242415, 0, 0, 0.242415, 153.25, 48.75)" opacity="1">
<path style="fill:#FFFFFF;fill-opacity:1" d="M9.05 -15.85L42.55 -15.85L42.55 6.85L38.85 6.85L38.85 4.6L12.75 4.6L12.75 6.85L9.05 6.85L9.05 -15.85M28.35 -38.35L47.45 -38.35L47.45 -17.9L43.75 -17.9L43.75 -20.9L32.05 -20.9L32.05 -17.9L28.35 -17.9L28.35 -38.35M1.6 -29.3L12.7 -29.3Q13.1 -31.55 13.2 -34.6L8.25 -34.6Q6.3 -31.85 3.65 -29.45Q2.7 -30.85 1.3 -32.45Q6.6 -36.85 8.55 -42.8L12.2 -42Q11.4 -39.8 10.3 -37.8L25.25 -37.8L25.25 -34.6L16.95 -34.6Q16.8 -31.65 16.5 -29.3L26.75 -29.3L26.75 -26.1L15.85 -26.1L15.55 -25.15Q20.55 -22.7 26.4 -19.15L24.1 -16.2Q19 -19.75 14.15 -22.25Q10.75 -16.95 2.8 -13.65Q1.85 -15.2 0.5 -17Q9.45 -20.3 11.85 -26.1L1.6 -26.1L1.6 -29.3M38.85 -12.65L12.75 -12.65L12.75 -7.15L38.85 -7.15L38.85 -12.65M12.75 1.4L38.85 1.4L38.85 -4.05L12.75 -4.05L12.75 1.4M43.75 -35.15L32.05 -35.15L32.05 -24.1L43.75 -24.1L43.75 -35.15" />
</g>
<g id="PathID_307" transform="matrix(0.242415, 0, 0, 0.242415, 165.65, 48.75)" opacity="1">
<path style="fill:#FFFFFF;fill-opacity:1" d="M6.65 -8.6L40.25 -8.6L40.25 -11.85L8.25 -11.85L8.25 -14.55L40.25 -14.55L40.25 -17.8L6.65 -17.8L6.65 -20.5L43.95 -20.5L43.95 -4.65L40.25 -4.65L40.25 -5.9L6.65 -5.9L6.65 -8.6M2 -26.35L12.35 -26.35L12.35 -29.65L4.4 -29.65L4.4 -32.25L12.35 -32.25L12.35 -35.5L3.2 -35.5L3.2 -38.1L12.35 -38.1L12.35 -41.75L15.85 -41.75L15.85 -38.1L24.3 -38.1L24.3 -35.5L15.85 -35.5L15.85 -32.25L23.7 -32.25L23.7 -29.65L15.85 -29.65L15.85 -26.35L24.65 -26.35L24.65 -23.75L15.85 -23.75L15.85 -22.05L12.35 -22.05L12.35 -23.75L2 -23.75L2 -26.35M26.5 -26.35L34.45 -26.35L34.45 -29.65L28 -29.65L28 -32.25L34.45 -32.25L34.45 -35.5L26.9 -35.5L26.9 -38.1L34.45 -38.1L34.45 -41.65L37.95 -41.65L37.95 -38.1L47.9 -38.1L47.9 -35.5L37.95 -35.5L37.95 -32.25L46.7 -32.25L46.7 -29.65L37.95 -29.65L37.95 -26.35L48.65 -26.35L48.65 -23.75L37.95 -23.75L37.95 -22L34.45 -22L34.45 -23.75L26.5 -23.75L26.5 -26.35M13.95 -4.4L17.75 -4.4L17.75 1.05Q17.75 2.9 19.85 2.9L30.3 2.9Q33.6 2.9 34.6 1.8Q35.65 0.55 35.75 -2.95Q37.4 -2.25 39.65 -1.45Q38.95 3.2 37.25 4.6Q35.55 6.2 31.1 6.2L18.7 6.2Q13.95 6.2 13.95 1.35L13.95 -4.4M7.65 -4.35L11 -2.75Q8.35 1.85 5.25 5.55Q4.15 4.75 2.15 3.5Q5.55 -0.1 7.65 -4.35M41.85 -2L44.75 -4.05Q48 -0.3 50.55 3.3L47.4 5.5Q44.65 1.35 41.85 -2M22.65 -4.05L25.25 -5.85Q27.45 -3.75 29.55 -1.4L26.6 0.7Q24.75 -1.85 22.65 -4.05" />
</g>
<g id="PathID_308" transform="matrix(0.242415, 0, 0, 0.242415, 196.45, 48.75)" opacity="1">
<path style="fill:#FFFFFF;fill-opacity:1" d="M19.4 -41.95L18.75 -40.9Q25.1 -35.05 30.95 -29.05L28.2 -25.95Q22.85 -31.9 16.8 -37.7Q11.9 -29.95 6.7 -24.75L27.25 -24.75Q26.95 -17.8 26.75 -15Q26.5 -7.55 19.95 -7.55Q17.3 -7.55 13.45 -7.7Q13.15 -9.9 12.75 -11.7Q16.1 -11.15 19.15 -11.1Q22.75 -11.05 23 -15.65L23.3 -21.25L10.05 -21.25L10.05 -1.2Q10.05 1.6 13.05 1.6L21.25 1.6Q25.2 1.6 25.7 -1Q26.3 -3.4 26.6 -7Q28.55 -6.2 30.55 -5.55Q30.05 -2.25 29.3 0.55Q28.05 5.2 22.25 5.2L12.3 5.2Q6.15 5.2 6.15 -0.9L6.15 -24.15Q4.55 -22.65 3 -21.4Q1.5 -23.85 0.7 -25Q8.9 -31.25 14.8 -41.95L19.4 -41.95M43.35 -41.6L47.35 -41.6L47.35 -0.05Q47.35 6.05 41.3 6.1L33.45 6.05Q33.2 3.75 32.65 1.5Q37.95 1.95 40.1 1.95Q43.35 1.95 43.35 -1.25L43.35 -41.6M36.75 -6.35L32.9 -6.35L32.9 -37.15L36.75 -37.15L36.75 -6.35" />
</g>
<g id="PathID_309" transform="matrix(0.242415, 0, 0, 0.242415, 208.85, 48.75)" opacity="1">
<path style="fill:#FFFFFF;fill-opacity:1" d="M19.4 -17.5L44.85 -17.5L44.85 -1.45L41 -1.45L41 -3.5L23.25 -3.5L23.25 -1.45L19.4 -1.45L19.4 -17.5M15 -25.2L30.85 -25.2L30.85 -32L22.35 -32Q21 -28.8 19.45 -26.15Q18.15 -27 16 -27.95Q19.65 -33.85 21.45 -41.1L25.25 -40.25Q24.5 -37.7 23.65 -35.4L30.85 -35.4L30.85 -42.5L34.75 -42.5L34.75 -35.4L47.55 -35.4L47.55 -32L34.75 -32L34.75 -25.2L50 -25.2L50 -21.8L15 -21.8L15 -25.2M21.3 1.6L33.75 1.8L50.4 1.4L49 5.35L32.45 5.45L20.55 5.15Q12.05 5.05 8.65 -0.7Q6.6 1.2 2.65 6L0.6 1.85Q5 -2.45 7 -4.3L7 -21.1L1.05 -21.1L1.05 -24.8L10.85 -24.8L10.85 -3.45Q13.9 1.55 21.3 1.6M41 -14.1L23.25 -14.1L23.25 -6.9L41 -6.9L41 -14.1M6.85 -41.6Q9.4 -38.5 13.85 -32.15L10.3 -29.65Q6.25 -36 3.65 -39.45L6.85 -41.6" />
</g>
<g id="PathID_310" transform="matrix(0.242415, 0, 0, 0.242415, 221.25, 48.75)" opacity="1">
<path style="fill:#FFFFFF;fill-opacity:1" d="M50.6 -1Q49.2 0.7 47.8 2.7Q34.6 -3.9 27.55 -14.3L27.55 6.6L23.65 6.6L23.65 -14.25Q16.05 -4.2 3.35 3.3Q2.4 1.95 0.65 -0.05Q14.2 -7.2 22.1 -17.2L1.45 -17.2L1.45 -20.9L23.65 -20.9L23.65 -30.3L4.4 -30.3L4.4 -34L23.65 -34L23.65 -42.55L27.55 -42.55L27.55 -34L47 -34L47 -30.3L27.55 -30.3L27.55 -20.9L49.75 -20.9L49.75 -17.2L28.95 -17.2Q37 -6.45 50.6 -1" />
</g>
<g id="PathID_311" transform="matrix(0.242415, 0, 0, 0.242415, 233.65, 48.75)" opacity="1">
<path style="fill:#FFFFFF;fill-opacity:1" d="M50.6 -1.1Q48.95 1 47.8 2.7Q34.75 -3.2 27.5 -12.4L27.5 6.75L23.7 6.75L23.7 -12.65Q16.4 -4.1 3.3 3.3Q2.25 1.8 0.6 -0.15Q13.65 -6.7 22.45 -15.35L1.45 -15.35L1.45 -18.85L23.7 -18.85L23.7 -32L4.4 -32L4.4 -35.5L23.7 -35.5L23.7 -42.7L27.5 -42.7L27.5 -35.5L47.2 -35.5L47.2 -32L27.5 -32L27.5 -18.85L49.8 -18.85L49.8 -15.35L28.5 -15.35Q36.75 -6.2 50.6 -1.1M32.45 -22.1Q37.05 -27 39.6 -30.6L43.05 -27.95Q39.3 -23.5 35.35 -19.6L32.45 -22.1M8.6 -28.05L11.5 -30.4Q15.2 -26.75 18.5 -22.6L15.2 -19.85Q12.65 -23.35 8.6 -28.05" />
</g>
<g id="PathID_312" transform="matrix(0.242415, 0, 0, 0.242415, 246.1, 48.75)" opacity="1">
<path style="fill:#FFFFFF;fill-opacity:1" d="M9.05 -38.75L8.2 -26.7L4.85 -26.7L4.05 -38.75L9.05 -38.75" />
</g>
<g id="PathID_313" transform="matrix(0.242415, 0, 0, 0.242415, 249.25, 48.75)" opacity="1">
<path style="fill:#FFFFFF;fill-opacity:1" d="M9.05 -38.75L8.2 -26.7L4.85 -26.7L4.05 -38.75L9.05 -38.75" />
</g>
<g id="PathID_314" transform="matrix(0.242415, 0, 0, 0.242415, 263.45, 48.75)" opacity="1">
<path style="fill:#FFFFFF;fill-opacity:1" d="M55.3 -13.45L0 -13.45L0 -17.2L55.3 -17.2L55.3 -13.45" />
</g>
<g id="PathID_315" transform="matrix(0.242415, 0, 0, 0.242415, 276.85, 48.75)" opacity="1">
<path style="fill:#FFFFFF;fill-opacity:1" d="M55.3 -13.45L0 -13.45L0 -17.2L55.3 -17.2L55.3 -13.45" />
</g>
<g id="PathID_316" transform="matrix(0.288319, 0, 0, 0.288319, 3.75, 2.9)" opacity="1">
<path style="fill:#00BFFF;fill-opacity:1" d="M177.45 84.8Q177.45 97.1 167.7 105.7Q157.85 114.4 144.1 114.4Q130.2 114.4 120.3 105.7Q110.6 97.1 110.6 84.8Q110.6 72.9 120.3 64.45Q130.2 55.95 144.1 55.95Q157.85 55.95 167.7 64.45Q177.45 72.9 177.45 84.8M154 16.3Q162.35 21.65 162.35 30Q162.35 38 154 43.9Q145.65 49.3 133.95 49.3Q122.05 49.3 113.75 43.9Q105.6 38 105.6 30Q105.6 21.65 113.75 16.3Q122.05 10.3 133.95 10.3Q145.65 10.3 154 16.3M97.75 20.6Q91.55 27.15 80.35 30.85Q69.6 34.4 60.55 32.85Q51.3 31.4 49.35 25.35Q47.35 19.75 54 12.8Q60.2 6.4 71.3 2.7Q82.15 -1 91.2 0.35Q100.4 2 102.4 7.85Q104.3 13.65 97.75 20.6M44.7 46.1Q42.95 55 36.25 63.5Q29.6 72.05 21.7 75.75Q13.7 79.55 8.85 75.75Q4.3 72.05 5.65 63.5Q7.15 54.65 13.85 46.1Q20.75 37.25 28.75 33.9Q36.75 30.2 41.5 33.9Q46.15 37.65 44.7 46.1M39.45 90.65Q46 98.3 46 109.35Q46 120.45 39.45 128.1Q32.45 135.95 23.05 135.95Q13.7 135.95 6.8 128.1Q0 120.45 0 109.35Q0 98.3 6.8 90.65Q13.7 82.7 23.05 82.7Q32.45 82.7 39.45 90.65M57.5 110.7Q67.75 101.35 82.15 101.35Q96.35 101.35 106.6 110.7Q116.6 120.1 116.6 133.3Q116.6 146.75 106.6 156.1Q96.35 165.15 82.15 165.15Q67.6 165.15 57.5 156.1Q47.35 146.75 47.35 133.3Q47.35 120.1 57.5 110.7" />
</g>
</svg>
